<?xml version="1.0" standalone="no"?>
<!DOCTYPE svg PUBLIC "-//W3C//DTD SVG 20010904//EN"
 "http://www.w3.org/TR/2001/REC-SVG-20010904/DTD/svg10.dtd">
<svg version="1.0" xmlns="http://www.w3.org/2000/svg"
 width="800.000000pt" height="800.000000pt" viewBox="0 0 800.000000 800.000000"
 preserveAspectRatio="xMidYMid meet">
<metadata>
Created by potrace 1.14, written by Peter Selinger 2001-2017
</metadata>
<g transform="translate(0.000000,800.000000) scale(0.100000,-0.100000)"
fill="#000000" stroke="none">
<path d="M0 4000 l0 -3000 4000 0 4000 0 0 3000 0 3000 -4000 0 -4000 0 0
-3000z m6676 2512 c155 -80 174 -293 36 -398 -113 -87 -281 -51 -352 76 -31
57 -34 156 -6 210 64 123 205 172 322 112z m-3164 -93 c69 -35 118 -118 118
-201 0 -53 -48 -138 -98 -172 -34 -24 -56 -31 -107 -34 l-65 -4 10 26 c12 32
12 123 0 151 -6 14 -9 3 -10 -40 0 -36 -8 -73 -19 -93 l-17 -34 -44 34 c-58
44 -85 98 -85 168 0 30 4 65 8 78 8 21 6 22 -40 22 -108 -1 -212 -92 -213
-188 -1 -22 -2 -24 -10 -10 -7 11 -6 35 1 70 9 42 21 63 58 99 61 62 131 82
209 60 18 -6 30 -6 28 -2 -6 10 39 54 74 72 59 31 138 30 202 -2z m2004 -503
c62 -29 124 -90 156 -154 19 -39 23 -63 23 -142 0 -84 -4 -101 -27 -146 -16
-31 -52 -73 -90 -105 -153 -132 -178 -171 -178 -277 0 -116 -71 -218 -168
-242 -28 -6 -62 -10 -76 -8 -16 2 -31 -4 -41 -17 -16 -20 -16 -20 -6 1 9 20 7
22 -27 28 -56 9 -114 7 -190 -6 -121 -21 -140 -5 -178 149 -55 223 -166 368
-344 452 -192 91 -462 79 -630 -29 -142 -91 -220 -226 -220 -378 0 -81 26
-143 90 -217 24 -28 61 -88 82 -134 27 -57 57 -103 96 -144 60 -63 251 -194
534 -365 427 -259 611 -444 684 -687 28 -92 26 -294 -4 -400 -83 -289 -286
-493 -597 -596 -169 -57 -278 -72 -500 -73 -213 0 -349 16 -536 63 -143 37
-216 66 -340 136 -53 31 -131 67 -174 82 -84 28 -144 73 -165 122 -11 27 -10
107 2 152 8 34 74 86 138 108 36 13 69 27 75 32 13 13 -51 11 -78 -2 -17 -8
-16 -5 6 15 39 36 72 34 97 -6 15 -24 20 -28 18 -12 -4 27 115 132 158 140 63
12 92 -24 120 -145 41 -183 129 -324 261 -418 244 -174 610 -152 813 48 107
106 162 264 140 404 -35 222 -166 371 -550 625 -195 129 -258 160 -328 160
-69 0 -98 -27 -108 -100 -4 -32 -11 -49 -18 -46 -135 60 -216 75 -251 46 -16
-13 -17 -26 -11 -132 7 -114 1 -188 -14 -188 -19 0 -105 88 -121 125 -21 45
-25 119 -9 161 8 21 8 29 -2 36 -9 5 -3 8 15 8 15 0 41 7 57 15 38 19 39 50 5
123 -13 28 -22 52 -19 52 3 0 17 -25 31 -56 14 -30 30 -53 37 -51 6 2 37 13
68 23 32 9 74 31 93 47 29 24 35 35 35 68 0 55 -26 101 -115 205 -174 203
-244 387 -232 614 19 375 277 639 719 737 116 25 550 26 717 0 122 -18 331
-65 344 -76 11 -11 -49 -88 -82 -106 -17 -8 -56 -15 -88 -16 l-58 0 45 -20
c54 -24 94 -60 122 -111 28 -49 69 -66 103 -44 34 23 40 57 21 125 -17 60 -20
101 -10 139 5 17 14 22 38 22 45 1 110 33 134 67 12 16 31 54 42 84 12 30 32
74 46 98 l24 44 -45 -6 c-25 -4 -69 -18 -97 -32 l-53 -26 34 30 c44 38 103 66
161 76 25 4 65 19 89 33 98 57 208 63 307 18z m-2389 18 c-3 -3 -12 -4 -19 -1
-8 3 -5 6 6 6 11 1 17 -2 13 -5z m70 0 c-3 -3 -12 -4 -19 -1 -8 3 -5 6 6 6 11
1 17 -2 13 -5z m1650 -376 c-3 -8 -6 -5 -6 6 -1 11 2 17 5 13 3 -3 4 -12 1
-19z m-44 -795 c-13 -2 -33 -2 -45 0 -13 2 -3 4 22 4 25 0 35 -2 23 -4z m84
-9 c-3 -3 -12 -4 -19 -1 -8 3 -5 6 6 6 11 1 17 -2 13 -5z m-280 -30 c-3 -3
-12 -4 -19 -1 -8 3 -5 6 6 6 11 1 17 -2 13 -5z m-1536 -671 c13 -16 12 -17 -3
-4 -17 13 -22 21 -14 21 2 0 10 -8 17 -17z m-169 -259 c-124 -62 -163 -185
-95 -302 55 -96 162 -127 266 -77 l52 26 -30 -26 c-49 -42 -151 -88 -179 -81
-30 7 -128 95 -155 139 -32 51 -44 124 -30 174 16 57 73 121 133 149 69 32
103 30 38 -2z m494 -5 l56 -21 -6 -51 c-9 -67 -27 -106 -64 -143 -40 -41 -96
-66 -156 -72 -48 -5 -49 -4 -42 19 4 13 12 65 17 114 11 108 23 141 58 160 36
20 71 18 137 -6z m-1340 -255 c52 -35 57 -106 13 -206 -17 -39 -38 -108 -46
-155 -17 -93 -40 -135 -93 -171 -29 -20 -44 -23 -92 -20 -32 2 -60 7 -64 11
-12 12 17 140 47 206 36 80 45 137 26 171 -12 22 -11 31 14 80 29 60 51 83 89
99 29 11 75 5 106 -15z m-309 -120 c-3 -3 -12 -4 -19 -1 -8 3 -5 6 6 6 11 1
17 -2 13 -5z m-94 -26 c-12 -13 -35 -52 -53 -88 -18 -36 -55 -92 -83 -125 -27
-33 -57 -76 -65 -95 -18 -43 -11 -113 15 -149 30 -41 100 -73 148 -67 l40 5
-34 -15 c-96 -43 -211 37 -211 146 0 51 19 89 80 160 26 30 66 92 88 137 23
45 52 89 64 97 31 22 35 20 11 -6z m167 -79 c0 -26 -13 -71 -36 -121 -20 -44
-39 -101 -43 -126 l-6 -47 -23 36 c-25 41 -30 124 -11 162 17 31 103 137 112
137 4 0 7 -19 7 -41z m-93 -331 c-3 -8 -6 -5 -6 6 -1 11 2 17 5 13 3 -3 4 -12
1 -19z m732 -107 c-32 -44 -36 -110 -10 -164 26 -54 71 -86 168 -121 74 -26
153 -63 153 -71 0 -2 -21 5 -46 15 -25 11 -74 27 -110 35 -72 17 -131 43 -156
72 -25 27 -48 87 -48 123 0 35 23 96 47 122 25 28 26 21 2 -11z m361 -387 c0
-2 -9 0 -20 6 -11 6 -20 13 -20 16 0 2 9 0 20 -6 11 -6 20 -13 20 -16z m1093
-634 c77 -85 -32 -212 -129 -151 -19 12 -37 34 -44 55 -10 31 -9 42 7 73 34
71 113 81 166 23z"/>
<path d="M3300 6295 c13 -14 26 -25 28 -25 3 0 -5 11 -18 25 -13 14 -26 25
-28 25 -3 0 5 -11 18 -25z"/>
<path d="M5227 5193 c-14 -16 -33 -46 -42 -68 -15 -39 -15 -39 2 -15 10 14 32
39 50 56 31 29 43 54 25 54 -5 0 -20 -12 -35 -27z"/>
<path d="M3271 4984 c0 -11 3 -14 6 -6 3 7 2 16 -1 19 -3 4 -6 -2 -5 -13z"/>
<path d="M5162 4945 c0 -16 2 -22 5 -12 2 9 2 23 0 30 -3 6 -5 -1 -5 -18z"/>
<path d="M3271 4894 c0 -11 3 -14 6 -6 3 7 2 16 -1 19 -3 4 -6 -2 -5 -13z"/>
<path d="M3290 4831 c0 -6 4 -13 10 -16 6 -3 7 1 4 9 -7 18 -14 21 -14 7z"/>
<path d="M3330 4766 c0 -2 8 -10 18 -17 15 -13 16 -12 3 4 -13 16 -21 21 -21
13z"/>
<path d="M3450 4545 c0 -12 48 -85 56 -85 3 0 -3 12 -14 28 -10 15 -24 36 -30
47 -6 11 -12 15 -12 10z"/>
<path d="M3525 4430 c10 -11 20 -20 23 -20 3 0 -3 9 -13 20 -10 11 -20 20 -23
20 -3 0 3 -9 13 -20z"/>
</g>
</svg>
